<?xml version="1.0" encoding="utf-8"?>
<!-- Generator: Adobe Illustrator 26.0.1, SVG Export Plug-In . SVG Version: 6.00 Build 0)  -->
<svg version="1.1" id="Layer_1" xmlns="http://www.w3.org/2000/svg" xmlns:xlink="http://www.w3.org/1999/xlink" x="0px" y="0px"
	 viewBox="0 0 100 100" enable-background="new 0 0 100 100" xml:space="preserve">
<g>
	<path d="M24.2144,65.5527c0.1035-1.709,0.207-4.2471,0.207-6.4736V28.7832h4.5059v15.7437h0.1035
		c1.6055-2.7969,4.5059-4.6094,8.5449-4.6094c6.2148,0,10.6172,5.1787,10.5654,12.7915c0,8.96-5.6455,13.4131-11.2383,13.4131
		c-3.625,0-6.5254-1.3975-8.3896-4.7119h-0.1553l-0.207,4.1426H24.2144z M28.9272,55.5059c0,0.5693,0.1035,1.1396,0.207,1.6572
		c0.8809,3.1592,3.5215,5.334,6.8359,5.334c4.7646,0,7.6133-3.8838,7.6133-9.6328c0-5.0234-2.5898-9.3218-7.458-9.3218
		c-3.1074,0-6.0068,2.1235-6.9395,5.5933c-0.1035,0.5176-0.2588,1.1396-0.2588,1.8643V55.5059z"/>
</g>
<g>
	<path d="M77.0688,28.7832v30.2959c0,2.2266,0.0518,4.7646,0.207,6.4736h-4.0908l-0.207-4.3506h-0.1035
		c-1.3984,2.7969-4.4541,4.9199-8.5449,4.9199c-6.0596,0-10.7207-5.127-10.7207-12.7393
		c-0.0518-8.3384,5.127-13.4653,11.2383-13.4653c3.832,0,6.4219,1.8125,7.5615,3.8325h0.1035V28.7832H77.0688z M72.5122,50.6895
		c0-0.5693-0.0518-1.3467-0.208-1.916c-0.6729-2.9004-3.1582-5.2827-6.5771-5.2827c-4.7119,0-7.5088,4.1431-7.5088,9.6851
		c0,5.0752,2.4854,9.2695,7.4053,9.2695c3.0557,0,5.8525-2.0195,6.6807-5.4375c0.1562-0.6221,0.208-1.2432,0.208-1.9678V50.6895z"/>
</g>
<line fill="none" stroke="#000000" stroke-width="4.5" stroke-miterlimit="10" x1="19.2318" y1="35.2313" x2="82.092" y2="35.2313"/>
<circle fill="none" stroke="#000000" stroke-miterlimit="10" cx="37.264" cy="53.4961" r="3.5"/>
<circle fill="none" stroke="#000000" stroke-miterlimit="10" cx="37.264" cy="53.4961" r="0.5"/>
<circle fill="none" stroke="#000000" stroke-miterlimit="10" cx="64.264" cy="53.4961" r="3.5"/>
<circle fill="none" stroke="#000000" stroke-miterlimit="10" cx="64.264" cy="53.4961" r="0.5"/>
<path fill="none" stroke="#000000" stroke-width="4.5" stroke-miterlimit="10" d="M95.4939,26.5925
	c-30.1875,1.284-61.1875,3.284-91.6675-0.05"/>
<path fill="none" stroke="#000000" stroke-width="4.5" stroke-miterlimit="10" d="M83.6043,63.8786
	c0,4.4031-14.7488,7.9725-32.9424,7.9725s-32.9424-3.5694-32.9424-7.9725"/>
<path fill="none" stroke="#000000" stroke-width="4.5" stroke-miterlimit="10" d="M69.8841,75.5388
	c0,2.5692-8.6061,4.652-19.2222,4.652s-19.2222-2.0828-19.2222-4.652"/>
<path fill="none" stroke="#000000" stroke-width="4.5" stroke-miterlimit="10" d="M44.4319,45.9335
	c0-0.8984,3.0093-1.6267,6.7214-1.6267c3.7121,0,6.7214,0.7283,6.7214,1.6267"/>
</svg>
